<?xml version="1.0" standalone="no"?>
<!DOCTYPE svg PUBLIC "-//W3C//DTD SVG 20010904//EN"
 "http://www.w3.org/TR/2001/REC-SVG-20010904/DTD/svg10.dtd">
<svg version="1.0" xmlns="http://www.w3.org/2000/svg"
 width="800.000000pt" height="800.000000pt" viewBox="0 0 800.000000 800.000000"
 preserveAspectRatio="xMidYMid meet">
<metadata>
Created by potrace 1.11, written by Peter Selinger 2001-2013
</metadata>
<g transform="translate(0.000000,800.000000) scale(0.100000,-0.100000)"
fill="#000000" stroke="none">
<path d="M4013 5785 c-106 -30 -237 -111 -352 -219 -111 -106 -281 -318 -407
-511 l-59 -90 0 165 c0 224 -28 317 -119 397 -106 94 -280 89 -447 -13 -162
-98 -384 -361 -579 -686 l-47 -79 -8 83 c-15 180 -77 405 -140 507 -38 63
-122 148 -175 177 -124 70 -305 92 -465 59 -105 -22 -244 -96 -319 -169 -86
-86 -111 -140 -111 -241 0 -66 4 -87 24 -122 46 -79 141 -103 244 -59 45 18
67 53 88 135 16 64 16 66 -3 71 -18 5 -18 8 10 46 42 58 109 89 192 89 191 0
259 -143 261 -552 1 -204 -48 -503 -151 -924 -42 -170 -198 -698 -231 -782
-51 -128 16 -236 145 -237 177 0 293 184 477 755 87 270 174 487 299 740 185
376 407 724 559 875 l76 75 3 -80 c8 -212 -110 -743 -368 -1660 -68 -239 -78
-286 -71 -318 13 -55 37 -86 84 -108 109 -49 211 0 301 144 56 90 89 162 173
380 168 439 421 934 668 1307 96 145 244 344 251 337 2 -2 -26 -95 -62 -207
-186 -585 -293 -1011 -356 -1420 -19 -123 -23 -184 -22 -405 0 -237 2 -267 22
-340 80 -289 247 -425 507 -413 79 3 98 8 153 38 89 47 179 152 247 288 30 60
31 97 6 136 -27 40 -57 55 -111 56 -59 0 -102 -27 -136 -87 -55 -96 -96 -133
-147 -133 -62 0 -104 92 -117 263 -24 293 61 797 241 1427 116 407 278 899
325 992 17 32 18 118 3 171 -13 48 -61 102 -113 129 -53 27 -170 34 -243 13z"/>
<path d="M6351 5770 c-130 -35 -255 -115 -388 -251 -115 -118 -179 -207 -297
-409 -37 -63 -64 -101 -60 -85 11 49 84 253 126 355 22 52 45 110 51 127 23
70 -32 154 -110 169 -20 4 -90 2 -155 -5 -505 -49 -1047 -300 -1218 -563 -50
-77 -74 -168 -68 -255 6 -81 32 -137 84 -183 52 -45 96 -61 169 -61 106 0 144
30 181 143 13 40 24 76 24 80 0 4 -23 8 -50 8 l-51 0 7 38 c22 126 178 277
399 387 86 43 275 115 301 115 2 0 -8 -24 -22 -52 -106 -209 -234 -661 -298
-1053 -46 -280 -60 -461 -61 -755 0 -242 2 -281 18 -328 21 -60 57 -106 98
-127 41 -22 127 -19 166 5 41 24 49 40 69 136 20 102 118 425 188 624 55 158
163 447 172 462 3 5 23 -7 45 -27 21 -19 46 -35 54 -35 47 0 157 -234 345
-735 157 -417 282 -652 434 -813 162 -171 335 -224 490 -148 92 45 176 146
176 213 0 70 -45 113 -120 113 -33 0 -50 -7 -77 -30 -18 -16 -44 -30 -57 -30
-43 0 -112 91 -186 245 -80 164 -116 258 -206 541 -97 307 -203 565 -273 669
l-30 45 87 44 c272 138 494 383 611 676 118 299 60 586 -144 706 -104 61 -287
80 -424 44z m170 -279 c22 -18 24 -26 24 -118 -1 -74 -6 -115 -23 -167 -62
-188 -203 -393 -365 -534 -116 -100 -284 -171 -404 -172 l-42 0 30 73 c104
252 250 510 385 682 155 199 320 297 395 236z"/>
</g>
</svg>
